<svg width="24" height="24" viewBox="0 0 24 24" fill="none" xmlns="http://www.w3.org/2000/svg">
<path fill-rule="evenodd" clip-rule="evenodd" d="M12 0C5.374 0 0 5.372 0 12C0 18.627 5.374 24 12 24C18.627 24 24 18.627 24 12C24 5.372 18.627 0 12 0ZM18.001 16.917C18.553 16.917 19 16.469 19 15.918V7.999C19 7.448 18.552 7 18.001 7H5.999C5.448 7 5 7.448 5 7.999V15.918C5 16.469 5.448 16.917 5.999 16.917H18.001ZM12 13.367L6.55 9.585L6.539 16.333H17.438V9.585L12 13.367ZM17.174 7.583C15.647 8.647 12 11.217 12 11.217L6.797 7.583H17.174V7.583Z" fill="#00041A"/>
</svg>
